<svg xmlns="http://www.w3.org/2000/svg" xmlns:xlink="http://www.w3.org/1999/xlink" width="40" zoomAndPan="magnify" viewBox="0 0 30 30.000001" height="40" preserveAspectRatio="xMidYMid meet" version="1.0"><defs><clipPath id="4562e467bc"><path d="M 5.808594 28.757812 L 25.527344 28.757812 L 25.527344 29.03125 L 5.808594 29.03125 Z M 5.808594 28.757812 " clip-rule="nonzero"/></clipPath><clipPath id="8382501955"><path d="M 4.492188 13 L 13 13 L 13 23 L 4.492188 23 Z M 4.492188 13 " clip-rule="nonzero"/></clipPath><clipPath id="3cae42d2ce"><path d="M 23 27 L 25.542969 27 L 25.542969 28 L 23 28 Z M 23 27 " clip-rule="nonzero"/></clipPath><clipPath id="fb2b80cb93"><path d="M 23 28 L 25.542969 28 L 25.542969 29 L 23 29 Z M 23 28 " clip-rule="nonzero"/></clipPath><clipPath id="e96d70ca6b"><path d="M 23 27 L 25.542969 27 L 25.542969 29 L 23 29 Z M 23 27 " clip-rule="nonzero"/></clipPath></defs><path fill="#f9c4b8" d="M 23.074219 28.902344 L 20.96875 28.902344 L 18.773438 19.9375 C 18.636719 19.390625 18.972656 18.835938 19.523438 18.703125 C 20.074219 18.570312 20.625 18.90625 20.761719 19.453125 L 23.074219 28.902344 " fill-opacity="1" fillRule="nonzero"/><path fill="#fcd105" d="M 9.222656 22.285156 C 8.261719 20.996094 8.8125 19.136719 8.8125 19.136719 L 10.078125 20.355469 L 9.222656 22.285156 " fill-opacity="1" fillRule="nonzero"/><path fill="#fc9705" d="M 19.582031 28.824219 L 10.863281 28.804688 L 11.234375 18.507812 L 16.058594 17.316406 L 20.25 18.414062 L 19.582031 28.824219 " fill-opacity="1" fillRule="nonzero"/><path fill="#433fab" d="M 12.035156 8.785156 C 12.59375 7.976562 13.335938 7.308594 14.269531 6.886719 C 15.640625 6.273438 16.871094 5.96875 18.433594 7.054688 C 20 8.140625 19.898438 7.925781 20.503906 8.253906 C 21.789062 8.953125 21.425781 9.480469 21.789062 10.679688 C 22.152344 11.878906 23.015625 11.320312 23.214844 12.242188 C 23.410156 13.160156 23.4375 14.695312 23.4375 14.695312 C 23.4375 14.695312 21.984375 15.726562 20.921875 16.0625 C 20.0625 16.332031 17.597656 16.953125 17.597656 16.953125 L 12.035156 8.785156 " fill-opacity="1" fillRule="nonzero"/><path fill="#433fab" d="M 12.316406 8.617188 C 10.972656 9.035156 10.804688 9.453125 10.554688 10.429688 C 10.304688 11.40625 9.714844 11.40625 9.324219 11.960938 C 8.933594 12.519531 9.660156 13.414062 9.4375 13.96875 C 9.214844 14.527344 9.015625 14.25 8.429688 15.058594 C 7.84375 15.867188 9.015625 18.515625 9.015625 18.515625 C 9.015625 18.515625 11.335938 18.238281 13.152344 17.816406 C 14.605469 17.484375 17.511719 16.507812 17.511719 16.507812 L 15.027344 8.671875 L 12.316406 8.617188 " fill-opacity="1" fillRule="nonzero"/><path fill="#efb4ad" d="M 15.890625 19.148438 C 15.796875 19.148438 15.703125 19.132812 15.605469 19.105469 C 15.0625 18.949219 14.75 18.382812 14.910156 17.839844 L 15.410156 16.113281 C 15.570312 15.570312 16.136719 15.257812 16.679688 15.414062 C 17.222656 15.574219 17.535156 16.140625 17.378906 16.679688 L 16.875 18.410156 C 16.746094 18.855469 16.335938 19.148438 15.890625 19.148438 " fill-opacity="1" fillRule="nonzero"/><g clip-path="url(#4562e467bc)"><path fill="#0d0845" d="M 25.390625 29.035156 L 5.949219 29.035156 C 5.875 29.035156 5.816406 28.976562 5.816406 28.902344 C 5.816406 28.828125 5.875 28.769531 5.949219 28.769531 L 25.390625 28.769531 C 25.464844 28.769531 25.527344 28.828125 25.527344 28.902344 C 25.527344 28.976562 25.464844 29.035156 25.390625 29.035156 " fill-opacity="1" fillRule="nonzero"/></g><path fill="#efb4ad" d="M 21.480469 12.714844 C 21.480469 15.054688 19.578125 16.953125 17.234375 16.953125 C 14.886719 16.953125 12.984375 15.054688 12.984375 12.714844 C 12.984375 10.375 14.886719 8.476562 17.234375 8.476562 C 19.578125 8.476562 21.480469 10.375 21.480469 12.714844 " fill-opacity="1" fillRule="nonzero"/><path fill="#efb4ad" d="M 13.960938 14.054688 C 14.4375 14.464844 14.507812 15.15625 14.121094 15.597656 C 13.738281 16.039062 13.039062 16.0625 12.566406 15.652344 C 12.09375 15.242188 12.023438 14.550781 12.40625 14.109375 C 12.792969 13.667969 13.488281 13.644531 13.960938 14.054688 " fill-opacity="1" fillRule="nonzero"/><path fill="#2c2c2d" d="M 19.164062 11.359375 C 19.300781 11.695312 19.246094 12.03125 19.042969 12.113281 C 18.839844 12.195312 18.566406 11.988281 18.429688 11.65625 C 18.296875 11.320312 18.351562 10.984375 18.554688 10.902344 C 18.757812 10.820312 19.03125 11.023438 19.164062 11.359375 " fill-opacity="1" fillRule="nonzero"/><path fill="#2c2c2d" d="M 16.996094 12.515625 C 17.125 12.839844 17.074219 13.171875 16.875 13.25 C 16.675781 13.328125 16.410156 13.128906 16.277344 12.804688 C 16.148438 12.476562 16.199219 12.148438 16.398438 12.070312 C 16.597656 11.992188 16.863281 12.191406 16.996094 12.515625 " fill-opacity="1" fillRule="nonzero"/><path fill="#2c2c2d" d="M 18.5 13.679688 C 18.492188 13.679688 18.488281 13.675781 18.480469 13.671875 C 18.464844 13.660156 18.460938 13.640625 18.472656 13.625 C 18.585938 13.464844 18.867188 13.003906 18.839844 12.832031 C 18.828125 12.773438 18.769531 12.761719 18.632812 12.738281 C 18.410156 12.703125 18.078125 12.648438 17.730469 12.253906 C 17.71875 12.242188 17.71875 12.21875 17.734375 12.207031 C 17.746094 12.195312 17.765625 12.195312 17.78125 12.210938 C 18.113281 12.589844 18.433594 12.640625 18.640625 12.671875 C 18.777344 12.695312 18.886719 12.710938 18.90625 12.820312 C 18.945312 13.054688 18.542969 13.640625 18.527344 13.664062 C 18.519531 13.671875 18.511719 13.679688 18.5 13.679688 " fill-opacity="1" fillRule="nonzero"/><path fill="#36334c" d="M 17.28125 11.878906 L 17.183594 11.824219 C 17.480469 11.300781 17.851562 11.367188 17.867188 11.367188 L 17.847656 11.476562 C 17.835938 11.476562 17.535156 11.429688 17.28125 11.878906 " fill-opacity="1" fillRule="nonzero"/><path fill="#36334c" d="M 13.042969 13.832031 C 13.015625 13.832031 12.988281 13.808594 12.984375 13.78125 C 12.980469 13.75 13.003906 13.722656 13.035156 13.71875 L 14.824219 13.496094 C 14.851562 13.492188 14.882812 13.515625 14.886719 13.546875 C 14.890625 13.574219 14.867188 13.601562 14.835938 13.605469 L 13.046875 13.828125 C 13.046875 13.832031 13.042969 13.832031 13.042969 13.832031 " fill-opacity="1" fillRule="nonzero"/><path fill="#36334c" d="M 13.730469 15.332031 C 13.71875 15.332031 13.707031 15.328125 13.703125 15.316406 C 13.699219 15.308594 13.289062 14.609375 12.878906 14.566406 C 12.753906 14.550781 12.636719 14.601562 12.535156 14.71875 C 12.523438 14.730469 12.503906 14.730469 12.488281 14.71875 C 12.472656 14.707031 12.472656 14.6875 12.484375 14.671875 C 12.601562 14.542969 12.738281 14.484375 12.882812 14.5 C 13.332031 14.542969 13.742188 15.253906 13.757812 15.28125 C 13.769531 15.296875 13.761719 15.320312 13.746094 15.328125 C 13.742188 15.332031 13.738281 15.332031 13.730469 15.332031 " fill-opacity="1" fillRule="nonzero"/><path fill="#36334c" d="M 12.863281 15.007812 C 12.855469 15.007812 12.847656 15.003906 12.84375 15 C 12.828125 14.988281 12.828125 14.964844 12.839844 14.953125 C 13.003906 14.757812 13.261719 14.726562 13.269531 14.726562 C 13.289062 14.726562 13.304688 14.738281 13.308594 14.757812 C 13.308594 14.773438 13.296875 14.792969 13.277344 14.792969 C 13.277344 14.792969 13.039062 14.824219 12.890625 14.996094 C 12.882812 15.003906 12.875 15.007812 12.863281 15.007812 " fill-opacity="1" fillRule="nonzero"/><path fill="#2c2c2d" d="M 18.378906 14.507812 C 18.257812 14.507812 18.125 14.484375 18 14.417969 C 17.984375 14.410156 17.976562 14.390625 17.984375 14.371094 C 17.996094 14.355469 18.015625 14.351562 18.03125 14.359375 C 18.429688 14.570312 18.886719 14.304688 18.894531 14.304688 C 18.910156 14.292969 18.929688 14.300781 18.9375 14.316406 C 18.949219 14.332031 18.941406 14.351562 18.925781 14.363281 C 18.914062 14.371094 18.671875 14.507812 18.378906 14.507812 " fill-opacity="1" fillRule="nonzero"/><path fill="#2c2c2d" d="M 18.429688 14.902344 C 18.359375 14.902344 18.269531 14.886719 18.183594 14.835938 C 18.167969 14.824219 18.164062 14.804688 18.171875 14.789062 C 18.183594 14.773438 18.203125 14.769531 18.21875 14.777344 C 18.371094 14.871094 18.535156 14.820312 18.535156 14.820312 C 18.554688 14.816406 18.574219 14.824219 18.578125 14.84375 C 18.582031 14.859375 18.574219 14.878906 18.554688 14.886719 C 18.550781 14.886719 18.5 14.902344 18.429688 14.902344 " fill-opacity="1" fillRule="nonzero"/><path fill="#433fab" d="M 13.910156 13.371094 C 14.03125 13.964844 13.960938 14.5 13.640625 14.59375 C 13.320312 14.6875 12.957031 14.28125 12.75 13.714844 C 12.425781 12.835938 12.699219 12.585938 13.019531 12.492188 C 13.339844 12.394531 13.5625 11.628906 13.910156 13.371094 " fill-opacity="1" fillRule="nonzero"/><path fill="#433fab" d="M 16.785156 8.839844 C 16.785156 8.839844 17.683594 8.894531 18.277344 9.113281 C 18.789062 8.804688 19.132812 8.617188 19.132812 8.617188 C 19.132812 8.617188 18.175781 8.089844 16.433594 8.097656 C 15.980469 8.097656 15.273438 8.378906 14.875 8.589844 C 14.285156 8.898438 13.453125 9.453125 12.984375 10.289062 C 12.203125 11.683594 12.632812 12.984375 12.632812 12.984375 C 12.632812 12.984375 14.71875 11.851562 16.28125 10.679688 C 16.835938 10.265625 17.160156 10.011719 17.644531 9.503906 L 16.785156 8.839844 " fill-opacity="1" fillRule="nonzero"/><path fill="#433fab" d="M 17.953125 9.289062 C 17.949219 9.289062 17.941406 9.285156 17.9375 9.285156 C 17.933594 9.28125 17.59375 9.089844 16.714844 8.851562 C 16.699219 8.847656 16.6875 8.832031 16.691406 8.8125 C 16.695312 8.792969 16.714844 8.785156 16.734375 8.789062 C 17.621094 9.027344 17.957031 9.21875 17.96875 9.226562 C 17.984375 9.234375 17.992188 9.253906 17.980469 9.269531 C 17.976562 9.28125 17.964844 9.289062 17.953125 9.289062 " fill-opacity="1" fillRule="nonzero"/><path fill="#433fab" d="M 8.96875 18.398438 C 8.925781 18.316406 7.921875 16.402344 7.859375 15.808594 C 7.800781 15.242188 8.015625 15.035156 8.484375 14.582031 C 8.519531 14.546875 8.5625 14.507812 8.601562 14.46875 C 8.683594 14.386719 8.757812 14.316406 8.824219 14.257812 C 9.179688 13.925781 9.253906 13.855469 9.152344 13.308594 C 9.113281 13.101562 9.058594 12.925781 9.007812 12.773438 C 8.894531 12.433594 8.808594 12.164062 9.019531 11.808594 C 9.195312 11.515625 9.507812 11.269531 9.78125 11.054688 C 9.972656 10.902344 10.15625 10.761719 10.25 10.628906 C 10.355469 10.488281 10.351562 10.339844 10.347656 10.171875 C 10.339844 9.972656 10.335938 9.75 10.496094 9.480469 C 10.902344 8.808594 11.410156 8.550781 12.144531 8.644531 L 12.136719 8.710938 C 11.421875 8.621094 10.949219 8.859375 10.554688 9.511719 C 10.402344 9.769531 10.40625 9.980469 10.414062 10.171875 C 10.417969 10.34375 10.421875 10.507812 10.304688 10.667969 C 10.203125 10.808594 10.019531 10.953125 9.820312 11.109375 C 9.550781 11.320312 9.246094 11.5625 9.078125 11.84375 C 8.878906 12.171875 8.960938 12.414062 9.070312 12.753906 C 9.121094 12.90625 9.179688 13.082031 9.21875 13.292969 C 9.328125 13.882812 9.230469 13.972656 8.867188 14.308594 C 8.804688 14.367188 8.730469 14.433594 8.648438 14.515625 C 8.609375 14.554688 8.566406 14.59375 8.527344 14.632812 C 8.0625 15.082031 7.871094 15.269531 7.925781 15.800781 C 7.988281 16.382812 9.019531 18.347656 9.027344 18.367188 L 8.96875 18.398438 " fill-opacity="1" fillRule="nonzero"/><path fill="#433fab" d="M 23.421875 14.675781 L 23.355469 14.675781 C 23.355469 14.667969 23.371094 13.953125 23.429688 12.933594 C 23.484375 11.902344 23.332031 11.707031 22.949219 11.484375 C 22.804688 11.398438 22.683594 11.355469 22.5625 11.3125 C 22.277344 11.210938 22.03125 11.125 21.648438 10.503906 L 21.703125 10.46875 C 22.074219 11.070312 22.300781 11.148438 22.585938 11.25 C 22.707031 11.292969 22.832031 11.339844 22.980469 11.425781 C 23.414062 11.679688 23.550781 11.933594 23.496094 12.9375 C 23.441406 13.957031 23.421875 14.671875 23.421875 14.675781 " fill-opacity="1" fillRule="nonzero"/><path fill="#f26375" d="M 17.324219 14.296875 C 17.324219 14.617188 17.046875 14.875 16.703125 14.875 C 16.355469 14.875 16.078125 14.617188 16.078125 14.296875 C 16.078125 13.976562 16.355469 13.714844 16.703125 13.714844 C 17.046875 13.714844 17.324219 13.976562 17.324219 14.296875 " fill-opacity="1" fillRule="nonzero"/><path fill="#f26375" d="M 20.175781 12.546875 C 20.175781 12.832031 19.929688 13.058594 19.625 13.058594 C 19.324219 13.058594 19.078125 12.832031 19.078125 12.546875 C 19.078125 12.265625 19.324219 12.035156 19.625 12.035156 C 19.929688 12.035156 20.175781 12.265625 20.175781 12.546875 " fill-opacity="1" fillRule="nonzero"/><path fill="#36334c" d="M 19.171875 9.703125 C 18.445312 9.703125 17.855469 10.292969 17.855469 11.015625 C 17.855469 11.738281 18.445312 12.324219 19.171875 12.324219 C 19.894531 12.324219 20.484375 11.738281 20.484375 11.015625 C 20.484375 10.292969 19.894531 9.703125 19.171875 9.703125 Z M 19.171875 12.4375 C 18.382812 12.4375 17.746094 11.796875 17.746094 11.015625 C 17.746094 10.230469 18.382812 9.59375 19.171875 9.59375 C 19.957031 9.59375 20.59375 10.230469 20.59375 11.015625 C 20.59375 11.796875 19.957031 12.4375 19.171875 12.4375 " fill-opacity="1" fillRule="nonzero"/><path fill="#36334c" d="M 16.085938 11.40625 C 15.316406 11.40625 14.691406 12.03125 14.691406 12.800781 C 14.691406 13.566406 15.316406 14.195312 16.085938 14.195312 C 16.859375 14.195312 17.484375 13.566406 17.484375 12.800781 C 17.484375 12.03125 16.859375 11.40625 16.085938 11.40625 Z M 16.085938 14.304688 C 15.253906 14.304688 14.578125 13.628906 14.578125 12.800781 C 14.578125 11.96875 15.253906 11.292969 16.085938 11.292969 C 16.917969 11.292969 17.597656 11.96875 17.597656 12.800781 C 17.597656 13.628906 16.917969 14.304688 16.085938 14.304688 " fill-opacity="1" fillRule="nonzero"/><path fill="#2c2c2d" d="M 17.195312 16.992188 C 16.890625 16.992188 15.925781 16.960938 15.285156 16.554688 C 15.269531 16.542969 15.265625 16.523438 15.277344 16.507812 C 15.285156 16.492188 15.308594 16.488281 15.324219 16.5 C 16.070312 16.96875 17.273438 16.925781 17.289062 16.925781 C 17.304688 16.925781 17.320312 16.9375 17.320312 16.957031 C 17.324219 16.976562 17.308594 16.992188 17.289062 16.992188 C 17.289062 16.992188 17.253906 16.992188 17.195312 16.992188 " fill-opacity="1" fillRule="nonzero"/><g clip-path="url(#8382501955)"><path fill="#f9c4b8" d="M 5.609375 22.425781 C 5.285156 22.425781 4.976562 22.277344 4.777344 22.003906 C 4.515625 21.644531 4.519531 21.152344 4.789062 20.796875 L 10.152344 13.621094 C 10.492188 13.167969 11.132812 13.074219 11.585938 13.410156 C 12.039062 13.75 12.132812 14.390625 11.792969 14.839844 L 8.386719 19.398438 L 10.722656 18.617188 C 11.257812 18.4375 11.839844 18.722656 12.019531 19.257812 C 12.199219 19.792969 11.910156 20.371094 11.375 20.550781 L 5.933594 22.375 C 5.828125 22.410156 5.71875 22.425781 5.609375 22.425781 " fill-opacity="1" fillRule="nonzero"/></g><path fill="#0d0845" d="M 12.589844 15.542969 L 12.148438 15.484375 L 12.867188 9.867188 L 13.308594 9.921875 L 12.589844 15.542969 " fill-opacity="1" fillRule="nonzero"/><path fill="#fdfcfb" d="M 13.078125 9.960938 L 13.046875 9.957031 C 12.929688 9.9375 12.851562 9.828125 12.867188 9.710938 L 12.925781 9.324219 C 12.945312 9.207031 13.054688 9.128906 13.171875 9.144531 L 13.203125 9.148438 C 13.320312 9.167969 13.402344 9.277344 13.382812 9.394531 L 13.324219 9.78125 C 13.304688 9.898438 13.195312 9.980469 13.078125 9.960938 " fill-opacity="1" fillRule="nonzero"/><path fill="#e8edfd" d="M 13.269531 10.460938 L 12.769531 10.40625 L 12.839844 9.785156 L 13.339844 9.839844 L 13.269531 10.460938 " fill-opacity="1" fillRule="nonzero"/><path fill="#f9c4b8" d="M 13.617188 13.449219 C 13.617188 14.3125 12.359375 14.863281 11.496094 14.863281 C 10.632812 14.863281 9.652344 14.527344 10.097656 13.207031 C 10.519531 11.960938 11.003906 11.574219 11.867188 11.574219 C 12.730469 11.574219 13.617188 12.585938 13.617188 13.449219 " fill-opacity="1" fillRule="nonzero"/><path fill="#f9c4b8" d="M 11.160156 12.558594 C 11.023438 12.558594 10.886719 12.488281 10.808594 12.363281 C 10.691406 12.171875 10.75 11.917969 10.941406 11.800781 C 11.808594 11.265625 13.140625 11.21875 13.195312 11.21875 C 13.425781 11.210938 13.613281 11.390625 13.621094 11.617188 C 13.628906 11.84375 13.449219 12.03125 13.222656 12.039062 C 13.210938 12.039062 12.054688 12.078125 11.375 12.496094 C 11.308594 12.539062 11.234375 12.558594 11.160156 12.558594 " fill-opacity="1" fillRule="nonzero"/><path fill="#f9c4b8" d="M 11.867188 12.929688 C 11.675781 12.929688 11.503906 12.796875 11.464844 12.597656 C 11.421875 12.375 11.566406 12.160156 11.789062 12.117188 L 13.316406 11.820312 C 13.539062 11.777344 13.753906 11.921875 13.800781 12.144531 C 13.84375 12.367188 13.699219 12.582031 13.472656 12.625 L 11.945312 12.921875 C 11.921875 12.929688 11.894531 12.929688 11.867188 12.929688 " fill-opacity="1" fillRule="nonzero"/><path fill="#f9c4b8" d="M 12.257812 13.75 C 12.078125 13.75 11.910156 13.628906 11.863281 13.445312 C 11.800781 13.226562 11.933594 13 12.152344 12.941406 L 13.324219 12.625 C 13.546875 12.566406 13.769531 12.695312 13.828125 12.914062 C 13.890625 13.132812 13.757812 13.359375 13.539062 13.417969 L 12.367188 13.734375 C 12.332031 13.746094 12.292969 13.75 12.257812 13.75 " fill-opacity="1" fillRule="nonzero"/><path fill="#f9c4b8" d="M 12.558594 14.34375 C 12.375 14.34375 12.207031 14.222656 12.160156 14.035156 C 12.101562 13.816406 12.234375 13.59375 12.453125 13.535156 L 13.308594 13.3125 C 13.53125 13.253906 13.753906 13.386719 13.8125 13.605469 C 13.871094 13.824219 13.738281 14.050781 13.519531 14.105469 L 12.660156 14.332031 C 12.625 14.339844 12.589844 14.34375 12.558594 14.34375 " fill-opacity="1" fillRule="nonzero"/><path fill="#f9c4b8" d="M 11.03125 12.707031 C 10.902344 12.707031 10.777344 12.648438 10.695312 12.539062 C 10.5625 12.355469 10.601562 12.097656 10.789062 11.964844 C 10.792969 11.960938 11.519531 11.417969 11.914062 10.449219 C 12 10.242188 12.242188 10.140625 12.453125 10.226562 C 12.660156 10.3125 12.761719 10.550781 12.675781 10.761719 C 12.191406 11.953125 11.308594 12.601562 11.273438 12.628906 C 11.199219 12.683594 11.113281 12.707031 11.03125 12.707031 " fill-opacity="1" fillRule="nonzero"/><path fill="#36334c" d="M 7.863281 20.210938 C 7.855469 20.210938 7.851562 20.210938 7.84375 20.207031 C 7.828125 20.195312 7.824219 20.175781 7.835938 20.160156 L 8.46875 19.210938 C 8.476562 19.195312 8.5 19.191406 8.515625 19.203125 C 8.53125 19.214844 8.535156 19.234375 8.523438 19.25 L 7.890625 20.199219 C 7.882812 20.207031 7.875 20.210938 7.863281 20.210938 " fill-opacity="1" fillRule="nonzero"/><path fill="#fc9705" d="M 9.222656 22.285156 C 9.417969 21.144531 9.21875 20.144531 8.8125 19.136719 C 8.8125 19.136719 9.046875 19.054688 9.722656 18.863281 C 9.742188 18.859375 9.761719 18.851562 9.785156 18.847656 C 10.027344 18.777344 10.320312 18.699219 10.675781 18.605469 L 10.792969 18.578125 L 10.859375 18.5625 L 12.453125 18.195312 L 14.027344 20.960938 L 9.222656 22.285156 " fill-opacity="1" fillRule="nonzero"/><path fill="#fc9705" d="M 21.675781 22.027344 L 19.65625 23.132812 L 20.25 18.414062 C 20.550781 18.734375 20.976562 19.875 21.28125 20.792969 C 21.289062 20.8125 21.296875 20.832031 21.304688 20.855469 C 21.398438 21.132812 21.476562 21.386719 21.539062 21.585938 C 21.546875 21.609375 21.554688 21.628906 21.5625 21.652344 C 21.632812 21.882812 21.675781 22.027344 21.675781 22.027344 " fill-opacity="1" fillRule="nonzero"/><path fill="#2c2c2d" d="M 19.804688 25.269531 C 19.785156 25.269531 19.769531 25.253906 19.769531 25.234375 L 19.964844 21.164062 C 19.96875 21.144531 19.980469 21.128906 20 21.132812 C 20.019531 21.132812 20.035156 21.148438 20.03125 21.164062 L 19.835938 25.238281 C 19.835938 25.253906 19.820312 25.269531 19.804688 25.269531 " fill-opacity="1" fillRule="nonzero"/><path fill="#2c2c2d" d="M 9.222656 22.320312 C 9.207031 22.320312 9.195312 22.308594 9.191406 22.292969 C 9.183594 22.277344 9.195312 22.257812 9.214844 22.253906 L 11.671875 21.597656 C 11.691406 21.59375 11.710938 21.601562 11.714844 21.621094 C 11.71875 21.636719 11.707031 21.65625 11.691406 21.660156 L 9.230469 22.316406 C 9.226562 22.320312 9.226562 22.320312 9.222656 22.320312 " fill-opacity="1" fillRule="nonzero"/><path fill="#36334c" d="M 11.550781 11.585938 C 11.539062 11.585938 11.523438 11.578125 11.519531 11.566406 C 11.511719 11.546875 11.523438 11.527344 11.539062 11.523438 C 11.542969 11.519531 12.085938 11.316406 12.515625 11.242188 C 12.9375 11.167969 13.058594 11.203125 13.070312 11.207031 C 13.089844 11.210938 13.097656 11.230469 13.089844 11.25 C 13.085938 11.265625 13.066406 11.273438 13.050781 11.269531 C 13.046875 11.269531 12.933594 11.238281 12.527344 11.308594 C 12.105469 11.378906 11.566406 11.582031 11.5625 11.585938 C 11.558594 11.585938 11.554688 11.585938 11.550781 11.585938 " fill-opacity="1" fillRule="nonzero"/><path fill="#e8edfd" d="M 14.695312 28.089844 C 14.65625 28.089844 14.621094 28.074219 14.59375 28.046875 C 14.308594 27.757812 13.472656 27.003906 13.03125 26.945312 C 12.230469 26.84375 11.710938 27.160156 11.210938 27.46875 C 10.902344 27.65625 10.613281 27.835938 10.261719 27.921875 C 10.226562 27.929688 10.1875 27.941406 10.152344 27.949219 C 9.714844 28.066406 9.171875 28.210938 8.367188 27.292969 C 8.316406 27.230469 8.320312 27.140625 8.382812 27.089844 C 8.441406 27.035156 8.535156 27.042969 8.585938 27.101562 C 9.269531 27.886719 9.664062 27.78125 10.078125 27.671875 C 10.117188 27.660156 10.15625 27.652344 10.195312 27.640625 C 10.5 27.566406 10.769531 27.398438 11.058594 27.222656 C 11.578125 26.902344 12.164062 26.542969 13.066406 26.660156 C 13.691406 26.742188 14.6875 27.730469 14.796875 27.84375 C 14.855469 27.898438 14.851562 27.992188 14.796875 28.046875 C 14.769531 28.074219 14.730469 28.089844 14.695312 28.089844 " fill-opacity="1" fillRule="nonzero"/><path fill="#fb7682" d="M 14.558594 28.769531 L 7.871094 28.769531 L 7.871094 28.433594 L 14.558594 28.433594 L 14.558594 28.769531 " fill-opacity="1" fillRule="nonzero"/><path fill="#e8edfd" d="M 14.945312 28.433594 L 7.964844 28.433594 L 7.964844 27.855469 L 14.945312 27.855469 L 14.945312 28.433594 " fill-opacity="1" fillRule="nonzero"/><path fill="#93a5f4" d="M 10.636719 28.132812 L 8.058594 28.132812 C 8.039062 28.132812 8.023438 28.117188 8.023438 28.097656 C 8.023438 28.078125 8.039062 28.066406 8.058594 28.066406 L 10.636719 28.066406 C 10.65625 28.066406 10.671875 28.078125 10.671875 28.097656 C 10.671875 28.117188 10.65625 28.132812 10.636719 28.132812 " fill-opacity="1" fillRule="nonzero"/><path fill="#93a5f4" d="M 11.484375 28.335938 L 9.007812 28.335938 C 8.988281 28.335938 8.976562 28.320312 8.976562 28.300781 C 8.976562 28.285156 8.988281 28.269531 9.007812 28.269531 L 11.484375 28.269531 C 11.503906 28.269531 11.519531 28.285156 11.519531 28.300781 C 11.519531 28.320312 11.503906 28.335938 11.484375 28.335938 " fill-opacity="1" fillRule="nonzero"/><path fill="#e8edfd" d="M 15.152344 28.078125 C 15.113281 28.078125 15.078125 28.066406 15.050781 28.039062 C 14.992188 27.980469 14.992188 27.890625 15.046875 27.835938 C 15.160156 27.722656 16.144531 26.742188 16.769531 26.660156 C 17.671875 26.542969 18.257812 26.902344 18.777344 27.222656 C 19.066406 27.398438 19.339844 27.566406 19.640625 27.640625 C 19.679688 27.652344 19.71875 27.660156 19.757812 27.671875 C 20.175781 27.78125 20.566406 27.886719 21.25 27.101562 C 21.300781 27.042969 21.394531 27.035156 21.453125 27.089844 C 21.515625 27.140625 21.519531 27.230469 21.46875 27.292969 C 20.667969 28.210938 20.121094 28.066406 19.683594 27.949219 C 19.648438 27.941406 19.609375 27.929688 19.574219 27.921875 C 19.226562 27.835938 18.933594 27.65625 18.625 27.46875 C 18.125 27.160156 17.609375 26.84375 16.808594 26.945312 C 16.363281 27.003906 15.535156 27.753906 15.253906 28.035156 C 15.226562 28.066406 15.1875 28.078125 15.152344 28.078125 " fill-opacity="1" fillRule="nonzero"/><path fill="#fb7682" d="M 15.300781 28.769531 L 21.964844 28.769531 L 21.964844 28.433594 L 15.300781 28.433594 L 15.300781 28.769531 " fill-opacity="1" fillRule="nonzero"/><path fill="#e8edfd" d="M 14.933594 28.433594 L 21.871094 28.433594 L 21.871094 27.855469 L 14.933594 27.855469 L 14.933594 28.433594 " fill-opacity="1" fillRule="nonzero"/><path fill="#93a5f4" d="M 21.777344 28.132812 L 19.199219 28.132812 C 19.179688 28.132812 19.164062 28.117188 19.164062 28.097656 C 19.164062 28.078125 19.179688 28.066406 19.199219 28.066406 L 21.777344 28.066406 C 21.796875 28.066406 21.8125 28.078125 21.8125 28.097656 C 21.8125 28.117188 21.796875 28.132812 21.777344 28.132812 " fill-opacity="1" fillRule="nonzero"/><path fill="#93a5f4" d="M 20.828125 28.335938 L 18.351562 28.335938 C 18.332031 28.335938 18.316406 28.320312 18.316406 28.300781 C 18.316406 28.285156 18.332031 28.269531 18.351562 28.269531 L 20.828125 28.269531 C 20.847656 28.269531 20.863281 28.285156 20.863281 28.300781 C 20.863281 28.320312 20.847656 28.335938 20.828125 28.335938 " fill-opacity="1" fillRule="nonzero"/><path fill="#fb7682" d="M 14.558594 28.769531 C 14.949219 28.117188 15.300781 28.769531 15.300781 28.769531 L 15.300781 28.433594 L 14.558594 28.433594 L 14.558594 28.769531 " fill-opacity="1" fillRule="nonzero"/><path fill="#fb7682" d="M 15.355469 28.769531 L 14.507812 28.769531 L 14.507812 28.667969 L 15.355469 28.667969 L 15.355469 28.769531 " fill-opacity="1" fillRule="nonzero"/><path fill="#433fab" d="M 16.726562 27.265625 L 16.691406 27.265625 C 16.402344 27.265625 16.171875 27.496094 16.171875 27.785156 L 16.171875 28.253906 C 16.171875 28.539062 16.402344 28.769531 16.691406 28.769531 L 23.742188 28.769531 L 23.742188 27.265625 L 16.726562 27.265625 " fill-opacity="1" fillRule="nonzero"/><g clip-path="url(#3cae42d2ce)"><path fill="#433fab" d="M 23.609375 27.46875 C 23.554688 27.46875 23.507812 27.421875 23.507812 27.367188 C 23.507812 27.3125 23.554688 27.269531 23.609375 27.269531 L 25.027344 27.265625 C 25.085938 27.265625 25.128906 27.3125 25.128906 27.367188 C 25.128906 27.421875 25.085938 27.464844 25.03125 27.464844 L 23.609375 27.46875 " fill-opacity="1" fillRule="nonzero"/></g><g clip-path="url(#fb2b80cb93)"><path fill="#433fab" d="M 25.058594 28.773438 L 23.585938 28.773438 C 23.53125 28.773438 23.484375 28.726562 23.484375 28.671875 C 23.484375 28.617188 23.53125 28.574219 23.585938 28.574219 L 25.058594 28.574219 C 25.113281 28.574219 25.15625 28.617188 25.15625 28.671875 C 25.15625 28.726562 25.113281 28.773438 25.058594 28.773438 " fill-opacity="1" fillRule="nonzero"/></g><path fill="#fcd105" d="M 17.792969 28.769531 L 17.164062 28.769531 C 17.007812 28.28125 17.007812 27.753906 17.164062 27.265625 L 17.789062 27.265625 C 17.582031 27.746094 17.582031 28.289062 17.792969 28.769531 " fill-opacity="1" fillRule="nonzero"/><path fill="#fcd105" d="M 16.878906 28.769531 C 16.671875 28.289062 16.671875 27.746094 16.878906 27.265625 L 16.726562 27.265625 C 16.535156 27.75 16.535156 28.289062 16.726562 28.769531 L 16.878906 28.769531 " fill-opacity="1" fillRule="nonzero"/><path fill="#fcd105" d="M 22.660156 28.769531 L 22.035156 28.769531 C 21.878906 28.28125 21.878906 27.753906 22.035156 27.265625 L 22.660156 27.265625 C 22.453125 27.746094 22.453125 28.289062 22.660156 28.769531 " fill-opacity="1" fillRule="nonzero"/><path fill="#fcd105" d="M 21.746094 28.769531 C 21.539062 28.289062 21.539062 27.746094 21.746094 27.265625 L 21.59375 27.265625 C 21.402344 27.75 21.402344 28.289062 21.597656 28.769531 L 21.746094 28.769531 " fill-opacity="1" fillRule="nonzero"/><g clip-path="url(#e96d70ca6b)"><path fill="#e8edfd" d="M 25.035156 28.570312 L 24.023438 28.570312 C 23.742188 28.570312 23.511719 28.34375 23.511719 28.0625 L 23.511719 27.976562 C 23.511719 27.695312 23.742188 27.464844 24.023438 27.464844 L 25.035156 27.464844 L 25.035156 28.570312 " fill-opacity="1" fillRule="nonzero"/></g><path fill="#433fab" d="M 24.957031 27.796875 L 23.890625 27.796875 C 23.871094 27.796875 23.855469 27.78125 23.855469 27.761719 C 23.855469 27.746094 23.871094 27.730469 23.890625 27.730469 L 24.957031 27.730469 C 24.976562 27.730469 24.992188 27.746094 24.992188 27.761719 C 24.992188 27.78125 24.976562 27.796875 24.957031 27.796875 " fill-opacity="1" fillRule="nonzero"/><path fill="#433fab" d="M 24.945312 28.070312 L 24.425781 28.070312 C 24.40625 28.070312 24.390625 28.054688 24.390625 28.035156 C 24.390625 28.019531 24.40625 28.003906 24.425781 28.003906 L 24.945312 28.003906 C 24.964844 28.003906 24.980469 28.019531 24.980469 28.035156 C 24.980469 28.054688 24.964844 28.070312 24.945312 28.070312 " fill-opacity="1" fillRule="nonzero"/><path fill="#e8edfd" d="M 24.238281 27.171875 L 17.054688 27.171875 L 17.054688 26.085938 L 24.238281 26.085938 L 24.238281 27.171875 " fill-opacity="1" fillRule="nonzero"/><path fill="#36334c" d="M 24.382812 27.273438 L 16.972656 27.273438 C 16.917969 27.273438 16.871094 27.230469 16.871094 27.171875 C 16.871094 27.117188 16.917969 27.074219 16.972656 27.074219 L 24.277344 27.074219 C 24.503906 26.742188 24.503906 26.417969 24.277344 26.089844 L 16.972656 26.089844 C 16.917969 26.089844 16.871094 26.046875 16.871094 25.988281 C 16.871094 25.933594 16.917969 25.890625 16.972656 25.890625 L 24.382812 25.890625 L 24.410156 25.929688 C 24.730469 26.359375 24.730469 26.796875 24.410156 27.234375 L 24.382812 27.273438 " fill-opacity="1" fillRule="nonzero"/><path fill="#433fab" d="M 20.597656 27.0625 C 20.582031 27.0625 20.566406 27.050781 20.566406 27.03125 L 20.566406 26.125 C 20.566406 26.109375 20.582031 26.09375 20.597656 26.09375 C 20.617188 26.09375 20.632812 26.109375 20.632812 26.125 L 20.632812 27.03125 C 20.632812 27.050781 20.617188 27.0625 20.597656 27.0625 " fill-opacity="1" fillRule="nonzero"/><path fill="#433fab" d="M 18.535156 26.273438 L 17.140625 26.273438 C 17.121094 26.273438 17.105469 26.257812 17.105469 26.238281 C 17.105469 26.222656 17.121094 26.207031 17.140625 26.207031 L 18.535156 26.207031 C 18.554688 26.207031 18.570312 26.222656 18.570312 26.238281 C 18.570312 26.257812 18.554688 26.273438 18.535156 26.273438 " fill-opacity="1" fillRule="nonzero"/><path fill="#433fab" d="M 18.816406 26.441406 L 17.457031 26.441406 C 17.4375 26.441406 17.421875 26.425781 17.421875 26.40625 C 17.421875 26.386719 17.4375 26.375 17.457031 26.375 L 18.816406 26.375 C 18.835938 26.375 18.851562 26.386719 18.851562 26.40625 C 18.851562 26.425781 18.835938 26.441406 18.816406 26.441406 " fill-opacity="1" fillRule="nonzero"/><path fill="#fb7682" d="M 24.574219 24.582031 C 24.472656 25.320312 23.953125 26.078125 23.367188 25.804688 C 22.820312 26.101562 22.253906 25.277344 22.144531 24.550781 C 22.03125 23.828125 22.351562 22.941406 23.367188 23.414062 C 24.5 22.953125 24.671875 23.839844 24.574219 24.582031 " fill-opacity="1" fillRule="nonzero"/><path fill="#fdfcfb" d="M 24.335938 23.855469 C 24.402344 24.0625 24.347656 24.269531 24.210938 24.3125 C 24.070312 24.355469 23.90625 24.222656 23.839844 24.011719 C 23.773438 23.804688 23.832031 23.601562 23.96875 23.554688 C 24.105469 23.511719 24.269531 23.644531 24.335938 23.855469 " fill-opacity="1" fillRule="nonzero"/><path fill="#fdfcfb" d="M 24.410156 24.527344 C 24.410156 24.601562 24.363281 24.660156 24.300781 24.660156 C 24.238281 24.660156 24.1875 24.601562 24.1875 24.527344 C 24.1875 24.457031 24.238281 24.398438 24.300781 24.398438 C 24.363281 24.398438 24.410156 24.457031 24.410156 24.527344 " fill-opacity="1" fillRule="nonzero"/><path fill="#36334c" d="M 23.367188 23.511719 C 23.320312 23.511719 23.277344 23.480469 23.269531 23.429688 C 23.21875 23.132812 23.265625 22.511719 23.828125 22.28125 C 23.878906 22.257812 23.9375 22.285156 23.957031 22.335938 C 23.980469 22.386719 23.953125 22.445312 23.902344 22.464844 C 23.351562 22.691406 23.464844 23.390625 23.46875 23.394531 C 23.476562 23.449219 23.441406 23.503906 23.386719 23.511719 C 23.378906 23.511719 23.375 23.511719 23.367188 23.511719 " fill-opacity="1" fillRule="nonzero"/><path fill="#36334c" d="M 23.160156 22.167969 C 23.398438 22.433594 23.335938 22.875 23.335938 22.875 C 23.335938 22.875 22.890625 22.894531 22.652344 22.632812 C 22.410156 22.371094 22.472656 21.925781 22.472656 21.925781 C 22.472656 21.925781 22.921875 21.90625 23.160156 22.167969 " fill-opacity="1" fillRule="nonzero"/><path fill="#2c2c2d" d="M 15.628906 12.226562 C 15.617188 12.226562 15.601562 12.21875 15.597656 12.203125 C 15.597656 12.199219 15.484375 11.695312 15.964844 11.539062 C 15.984375 11.535156 16 11.542969 16.007812 11.5625 C 16.011719 11.578125 16.003906 11.597656 15.984375 11.605469 C 15.566406 11.742188 15.660156 12.167969 15.664062 12.1875 C 15.667969 12.207031 15.65625 12.222656 15.636719 12.226562 C 15.636719 12.226562 15.632812 12.226562 15.628906 12.226562 " fill-opacity="1" fillRule="nonzero"/><path fill="#2c2c2d" d="M 18.203125 10.414062 C 18.191406 10.414062 18.183594 10.410156 18.175781 10.402344 C 18.164062 10.386719 18.167969 10.367188 18.179688 10.355469 C 18.320312 10.246094 18.636719 10.273438 18.652344 10.273438 C 18.671875 10.277344 18.683594 10.292969 18.683594 10.3125 C 18.679688 10.328125 18.664062 10.34375 18.644531 10.339844 C 18.644531 10.339844 18.339844 10.316406 18.222656 10.410156 C 18.214844 10.414062 18.210938 10.414062 18.203125 10.414062 " fill-opacity="1" fillRule="nonzero"/><path fill="#fd6107" d="M 13.226562 5.324219 C 13.214844 5.324219 13.199219 5.324219 13.1875 5.320312 C 12.964844 5.265625 12.558594 5.035156 12.625 4.554688 C 12.648438 4.375 12.722656 4.214844 12.796875 4.058594 C 12.9375 3.757812 13 3.589844 12.816406 3.398438 C 12.570312 3.148438 12.109375 3.117188 11.785156 3.332031 C 11.476562 3.535156 11.398438 3.890625 11.578125 4.300781 C 11.613281 4.382812 11.574219 4.476562 11.492188 4.511719 C 11.410156 4.546875 11.316406 4.507812 11.28125 4.425781 C 11.15625 4.132812 11.128906 3.859375 11.199219 3.609375 C 11.261719 3.386719 11.402344 3.199219 11.605469 3.066406 C 12.0625 2.765625 12.691406 2.8125 13.046875 3.179688 C 13.394531 3.535156 13.222656 3.902344 13.085938 4.195312 C 13.019531 4.335938 12.960938 4.464844 12.941406 4.597656 C 12.898438 4.90625 13.226562 5.003906 13.265625 5.011719 C 13.351562 5.03125 13.402344 5.121094 13.382812 5.207031 C 13.363281 5.277344 13.296875 5.324219 13.226562 5.324219 " fill-opacity="1" fillRule="nonzero"/><path fill="#fd6107" d="M 14.113281 5.523438 C 14.113281 5.652344 14.011719 5.757812 13.882812 5.757812 C 13.753906 5.757812 13.648438 5.652344 13.648438 5.523438 C 13.648438 5.398438 13.753906 5.292969 13.882812 5.292969 C 14.011719 5.292969 14.113281 5.398438 14.113281 5.523438 " fill-opacity="1" fillRule="nonzero"/><path fill="#fd6107" d="M 18.554688 4.574219 C 18.554688 4.5625 18.554688 4.554688 18.554688 4.542969 C 18.582031 4.378906 18.730469 4.070312 19.082031 4.09375 C 19.214844 4.101562 19.335938 4.144531 19.453125 4.191406 C 19.683594 4.277344 19.808594 4.3125 19.9375 4.167969 C 20.105469 3.976562 20.105469 3.636719 19.929688 3.414062 C 19.761719 3.203125 19.5 3.167969 19.210938 3.316406 C 19.152344 3.347656 19.082031 3.324219 19.050781 3.269531 C 19.023438 3.210938 19.042969 3.140625 19.101562 3.113281 C 19.308594 3.003906 19.507812 2.96875 19.691406 3.007812 C 19.859375 3.039062 20.003906 3.132812 20.113281 3.273438 C 20.359375 3.585938 20.355469 4.046875 20.109375 4.324219 C 19.867188 4.59375 19.59375 4.492188 19.371094 4.410156 C 19.265625 4.367188 19.167969 4.332031 19.070312 4.324219 C 18.84375 4.3125 18.789062 4.558594 18.785156 4.585938 C 18.773438 4.648438 18.714844 4.691406 18.652344 4.679688 C 18.597656 4.671875 18.558594 4.625 18.554688 4.574219 " fill-opacity="1" fillRule="nonzero"/><path fill="#fd6107" d="M 18.457031 5.230469 C 18.363281 5.234375 18.28125 5.167969 18.277344 5.074219 C 18.269531 4.980469 18.339844 4.898438 18.433594 4.890625 C 18.527344 4.882812 18.605469 4.953125 18.613281 5.046875 C 18.621094 5.140625 18.550781 5.222656 18.457031 5.230469 " fill-opacity="1" fillRule="nonzero"/><path fill="#fd6107" d="M 15.910156 3.636719 C 15.898438 3.625 15.886719 3.609375 15.882812 3.59375 C 15.753906 3.316406 15.65625 2.710938 16.207031 2.378906 C 16.410156 2.253906 16.636719 2.199219 16.859375 2.144531 C 17.285156 2.039062 17.511719 1.96875 17.554688 1.621094 C 17.613281 1.160156 17.261719 0.65625 16.769531 0.5 C 16.304688 0.355469 15.875 0.570312 15.597656 1.09375 C 15.542969 1.195312 15.414062 1.234375 15.3125 1.179688 C 15.207031 1.125 15.167969 1 15.222656 0.894531 C 15.421875 0.523438 15.683594 0.269531 15.996094 0.132812 C 16.28125 0.015625 16.589844 0.00390625 16.898438 0.101562 C 17.585938 0.316406 18.058594 1.007812 17.976562 1.671875 C 17.894531 2.324219 17.375 2.453125 16.960938 2.554688 C 16.761719 2.605469 16.574219 2.648438 16.421875 2.742188 C 16.070312 2.953125 16.246094 3.371094 16.265625 3.417969 C 16.316406 3.523438 16.269531 3.648438 16.160156 3.699219 C 16.074219 3.738281 15.96875 3.710938 15.910156 3.636719 " fill-opacity="1" fillRule="nonzero"/><path fill="#fd6107" d="M 16.4375 4.714844 C 16.308594 4.820312 16.113281 4.800781 16.007812 4.667969 C 15.902344 4.535156 15.921875 4.34375 16.054688 4.238281 C 16.1875 4.132812 16.378906 4.152344 16.484375 4.285156 C 16.59375 4.417969 16.570312 4.609375 16.4375 4.714844 " fill-opacity="1" fillRule="nonzero"/><path fill="#e8edfd" d="M 15.917969 22.398438 C 15.707031 22.398438 15.535156 22.570312 15.535156 22.78125 C 15.535156 22.992188 15.707031 23.167969 15.917969 23.167969 C 16.132812 23.167969 16.304688 22.992188 16.304688 22.78125 C 16.304688 22.570312 16.132812 22.398438 15.917969 22.398438 Z M 15.917969 23.234375 C 15.671875 23.234375 15.46875 23.03125 15.46875 22.78125 C 15.46875 22.53125 15.671875 22.328125 15.917969 22.328125 C 16.167969 22.328125 16.371094 22.53125 16.371094 22.78125 C 16.371094 23.03125 16.167969 23.234375 15.917969 23.234375 " fill-opacity="1" fillRule="nonzero"/><path fill="#e8edfd" d="M 18.128906 19.46875 C 17.835938 19.46875 17.601562 19.703125 17.601562 19.992188 C 17.601562 20.28125 17.835938 20.515625 18.128906 20.515625 C 18.417969 20.515625 18.652344 20.28125 18.652344 19.992188 C 18.652344 19.703125 18.417969 19.46875 18.128906 19.46875 Z M 18.128906 20.585938 C 17.800781 20.585938 17.535156 20.320312 17.535156 19.992188 C 17.535156 19.667969 17.800781 19.402344 18.128906 19.402344 C 18.453125 19.402344 18.71875 19.667969 18.71875 19.992188 C 18.71875 20.320312 18.453125 20.585938 18.128906 20.585938 " fill-opacity="1" fillRule="nonzero"/><path fill="#e8edfd" d="M 10.859375 18.5625 L 10.792969 18.578125 C 10.796875 18.601562 10.800781 18.628906 10.800781 18.65625 C 10.800781 18.945312 10.566406 19.179688 10.273438 19.179688 C 10.050781 19.179688 9.863281 19.039062 9.785156 18.847656 C 9.761719 18.851562 9.742188 18.859375 9.722656 18.863281 C 9.804688 19.085938 10.023438 19.246094 10.273438 19.246094 C 10.601562 19.246094 10.867188 18.980469 10.867188 18.65625 C 10.867188 18.625 10.863281 18.59375 10.859375 18.5625 " fill-opacity="1" fillRule="nonzero"/><path fill="#e8edfd" d="M 12.121094 23.957031 C 11.875 23.957031 11.675781 24.15625 11.675781 24.398438 C 11.675781 24.640625 11.875 24.839844 12.121094 24.839844 C 12.363281 24.839844 12.5625 24.640625 12.5625 24.398438 C 12.5625 24.15625 12.363281 23.957031 12.121094 23.957031 Z M 12.121094 24.90625 C 11.839844 24.90625 11.609375 24.679688 11.609375 24.398438 C 11.609375 24.117188 11.839844 23.890625 12.121094 23.890625 C 12.398438 23.890625 12.628906 24.117188 12.628906 24.398438 C 12.628906 24.679688 12.398438 24.90625 12.121094 24.90625 " fill-opacity="1" fillRule="nonzero"/><path fill="#e8edfd" d="M 18.546875 23.761719 C 18.210938 23.761719 17.9375 24.035156 17.9375 24.371094 C 17.9375 24.707031 18.210938 24.980469 18.546875 24.980469 C 18.882812 24.980469 19.15625 24.707031 19.15625 24.371094 C 19.15625 24.035156 18.882812 23.761719 18.546875 23.761719 Z M 18.546875 25.046875 C 18.171875 25.046875 17.871094 24.742188 17.871094 24.371094 C 17.871094 24 18.171875 23.695312 18.546875 23.695312 C 18.917969 23.695312 19.222656 24 19.222656 24.371094 C 19.222656 24.742188 18.917969 25.046875 18.546875 25.046875 " fill-opacity="1" fillRule="nonzero"/><path fill="#e8edfd" d="M 12.148438 18.6875 C 11.933594 18.6875 11.761719 18.859375 11.761719 19.074219 C 11.761719 19.285156 11.933594 19.457031 12.148438 19.457031 C 12.359375 19.457031 12.53125 19.285156 12.53125 19.074219 C 12.53125 18.859375 12.359375 18.6875 12.148438 18.6875 Z M 12.148438 19.523438 C 11.898438 19.523438 11.695312 19.320312 11.695312 19.074219 C 11.695312 18.824219 11.898438 18.621094 12.148438 18.621094 C 12.398438 18.621094 12.601562 18.824219 12.601562 19.074219 C 12.601562 19.320312 12.398438 19.523438 12.148438 19.523438 " fill-opacity="1" fillRule="nonzero"/><path fill="#e8edfd" d="M 10.304688 20.25 C 10.136719 20.25 10 20.382812 10 20.550781 C 10 20.71875 10.136719 20.851562 10.304688 20.851562 C 10.46875 20.851562 10.605469 20.71875 10.605469 20.550781 C 10.605469 20.382812 10.46875 20.25 10.304688 20.25 Z M 10.304688 20.917969 C 10.097656 20.917969 9.933594 20.753906 9.933594 20.550781 C 9.933594 20.347656 10.097656 20.183594 10.304688 20.183594 C 10.507812 20.183594 10.671875 20.347656 10.671875 20.550781 C 10.671875 20.753906 10.507812 20.917969 10.304688 20.917969 " fill-opacity="1" fillRule="nonzero"/><path fill="#e8edfd" d="M 13.238281 20.808594 C 13.023438 20.808594 12.851562 20.980469 12.851562 21.191406 C 12.851562 21.40625 13.023438 21.578125 13.238281 21.578125 C 13.449219 21.578125 13.621094 21.40625 13.621094 21.191406 C 13.621094 20.980469 13.449219 20.808594 13.238281 20.808594 Z M 13.238281 21.644531 C 12.988281 21.644531 12.785156 21.441406 12.785156 21.191406 C 12.785156 20.941406 12.988281 20.742188 13.238281 20.742188 C 13.488281 20.742188 13.691406 20.941406 13.691406 21.191406 C 13.691406 21.441406 13.488281 21.644531 13.238281 21.644531 " fill-opacity="1" fillRule="nonzero"/><path fill="#e8edfd" d="M 21.539062 21.585938 C 21.503906 21.597656 21.464844 21.605469 21.425781 21.605469 C 21.210938 21.605469 21.039062 21.433594 21.039062 21.21875 C 21.039062 21.050781 21.148438 20.90625 21.304688 20.855469 C 21.296875 20.832031 21.289062 20.8125 21.28125 20.792969 C 21.101562 20.851562 20.972656 21.019531 20.972656 21.21875 C 20.972656 21.46875 21.175781 21.671875 21.425781 21.671875 C 21.472656 21.671875 21.519531 21.664062 21.5625 21.652344 C 21.554688 21.628906 21.546875 21.609375 21.539062 21.585938 " fill-opacity="1" fillRule="nonzero"/><path fill="#e8edfd" d="M 14.632812 25.742188 C 14.40625 25.742188 14.21875 25.929688 14.21875 26.15625 C 14.21875 26.382812 14.40625 26.566406 14.632812 26.566406 C 14.863281 26.566406 15.046875 26.382812 15.046875 26.15625 C 15.046875 25.929688 14.863281 25.742188 14.632812 25.742188 Z M 14.632812 26.636719 C 14.371094 26.636719 14.152344 26.421875 14.152344 26.15625 C 14.152344 25.890625 14.371094 25.675781 14.632812 25.675781 C 14.898438 25.675781 15.113281 25.890625 15.113281 26.15625 C 15.113281 26.421875 14.898438 26.636719 14.632812 26.636719 " fill-opacity="1" fillRule="nonzero"/><path fill="#e8edfd" d="M 19.914062 18.546875 C 19.78125 18.546875 19.667969 18.660156 19.667969 18.792969 C 19.667969 18.929688 19.78125 19.039062 19.914062 19.039062 C 20.050781 19.039062 20.160156 18.929688 20.160156 18.792969 C 20.160156 18.660156 20.050781 18.546875 19.914062 18.546875 Z M 19.914062 19.105469 C 19.742188 19.105469 19.601562 18.964844 19.601562 18.792969 C 19.601562 18.621094 19.742188 18.480469 19.914062 18.480469 C 20.089844 18.480469 20.226562 18.621094 20.226562 18.792969 C 20.226562 18.964844 20.089844 19.105469 19.914062 19.105469 " fill-opacity="1" fillRule="nonzero"/><path fill="#e8edfd" d="M 18.964844 21.867188 C 18.738281 21.867188 18.550781 22.050781 18.550781 22.28125 C 18.550781 22.507812 18.738281 22.691406 18.964844 22.691406 C 19.195312 22.691406 19.378906 22.507812 19.378906 22.28125 C 19.378906 22.050781 19.195312 21.867188 18.964844 21.867188 Z M 18.964844 22.757812 C 18.699219 22.757812 18.484375 22.542969 18.484375 22.28125 C 18.484375 22.015625 18.699219 21.800781 18.964844 21.800781 C 19.230469 21.800781 19.445312 22.015625 19.445312 22.28125 C 19.445312 22.542969 19.230469 22.757812 18.964844 22.757812 " fill-opacity="1" fillRule="nonzero"/><path fill="#e8edfd" d="M 15.359375 19.550781 C 15.195312 19.550781 15.058594 19.6875 15.058594 19.855469 C 15.058594 20.019531 15.195312 20.15625 15.359375 20.15625 C 15.527344 20.15625 15.664062 20.019531 15.664062 19.855469 C 15.664062 19.6875 15.527344 19.550781 15.359375 19.550781 Z M 15.359375 20.222656 C 15.15625 20.222656 14.992188 20.054688 14.992188 19.855469 C 14.992188 19.652344 15.15625 19.484375 15.359375 19.484375 C 15.5625 19.484375 15.730469 19.652344 15.730469 19.855469 C 15.730469 20.054688 15.5625 20.222656 15.359375 20.222656 " fill-opacity="1" fillRule="nonzero"/></svg>